<?xml version="1.0" encoding="UTF-8" standalone="no"?>
<!-- Created with Inkscape (http://www.inkscape.org/) -->

<svg
   xmlns:dc="http://purl.org/dc/elements/1.1/"
   xmlns:cc="http://creativecommons.org/ns#"
   xmlns:rdf="http://www.w3.org/1999/02/22-rdf-syntax-ns#"
   xmlns:svg="http://www.w3.org/2000/svg"
   xmlns="http://www.w3.org/2000/svg"
   xmlns:xlink="http://www.w3.org/1999/xlink"
   xmlns:sodipodi="http://sodipodi.sourceforge.net/DTD/sodipodi-0.dtd"
   xmlns:inkscape="http://www.inkscape.org/namespaces/inkscape"
   width="744.09448819"
   height="1052.3622047"
   id="svg2"
   version="1.1"
   inkscape:version="0.48.2 r9819"
   sodipodi:docname="logo.pdf"
   inkscape:export-filename="/Users/vporras/Documents/afterglow/repo/logo.png"
   inkscape:export-xdpi="150"
   inkscape:export-ydpi="150">
  <defs
     id="defs4">
    <linearGradient
       id="linearGradient3769">
      <stop
         style="stop-color:#ff843f;stop-opacity:1;"
         offset="0"
         id="stop3771" />
      <stop
         id="stop3777"
         offset="0.15000001"
         style="stop-color:#fff43f;stop-opacity:1;" />
      <stop
         style="stop-color:#91f858;stop-opacity:1;"
         offset="0.41015172"
         id="stop3779" />
      <stop
         id="stop3781"
         offset="0.65592182"
         style="stop-color:#60ffe2;stop-opacity:1;" />
      <stop
         style="stop-color:#fb74ff;stop-opacity:1;"
         offset="1"
         id="stop3773" />
    </linearGradient>
    <linearGradient
       id="linearGradient2993">
      <stop
         style="stop-color:#000000;stop-opacity:1;"
         offset="0"
         id="stop2995" />
      <stop
         style="stop-color:#000000;stop-opacity:0;"
         offset="1"
         id="stop2997" />
    </linearGradient>
    <linearGradient
       inkscape:collect="always"
       xlink:href="#linearGradient3769"
       id="linearGradient3775"
       x1="181.5705"
       y1="651.83472"
       x2="604.42987"
       y2="651.83472"
       gradientUnits="userSpaceOnUse" />
    <filter
       inkscape:collect="always"
       id="filter3839">
      <feGaussianBlur
         inkscape:collect="always"
         stdDeviation="4.0895508"
         id="feGaussianBlur3841" />
    </filter>
    <filter
       inkscape:collect="always"
       id="filter3867"
       x="-0.031098731"
       width="1.0621975"
       y="-0.10514126"
       height="1.2102825">
      <feGaussianBlur
         inkscape:collect="always"
         stdDeviation="5.5342088"
         id="feGaussianBlur3869" />
    </filter>
    <filter
       inkscape:collect="always"
       id="filter3903">
      <feGaussianBlur
         inkscape:collect="always"
         stdDeviation="2.7263672"
         id="feGaussianBlur3905" />
    </filter>
    <linearGradient
       inkscape:collect="always"
       xlink:href="#linearGradient3769"
       id="linearGradient3907"
       gradientUnits="userSpaceOnUse"
       x1="181.5705"
       y1="651.83472"
       x2="604.42987"
       y2="651.83472" />
    <filter
       inkscape:collect="always"
       id="filter3927">
      <feGaussianBlur
         inkscape:collect="always"
         stdDeviation="4.1506566"
         id="feGaussianBlur3929" />
    </filter>
    <filter
       inkscape:collect="always"
       id="filter3955">
      <feGaussianBlur
         inkscape:collect="always"
         stdDeviation="0.40895508"
         id="feGaussianBlur3957" />
    </filter>
  </defs>
  <sodipodi:namedview
     id="base"
     pagecolor="#ffffff"
     bordercolor="#666666"
     borderopacity="1.0"
     inkscape:pageopacity="0.0"
     inkscape:pageshadow="2"
     inkscape:zoom="0.7"
     inkscape:cx="468.63541"
     inkscape:cy="305.11945"
     inkscape:document-units="px"
     inkscape:current-layer="layer1"
     showgrid="false"
     inkscape:window-width="1570"
     inkscape:window-height="826"
     inkscape:window-x="12"
     inkscape:window-y="77"
     inkscape:window-maximized="0" />
  <metadata
     id="metadata7">
    <rdf:RDF>
      <cc:Work
         rdf:about="">
        <dc:format>image/svg+xml</dc:format>
        <dc:type
           rdf:resource="http://purl.org/dc/dcmitype/StillImage" />
        <dc:title></dc:title>
      </cc:Work>
    </rdf:RDF>
  </metadata>
  <g
     inkscape:label="Layer 1"
     inkscape:groupmode="layer"
     id="layer1">
    <rect
       style="fill:#000000;fill-opacity:1;stroke:none"
       id="rect3785"
       width="531.56348"
       height="201.02435"
       x="128.95782"
       y="546.15381" />
    <text
       sodipodi:linespacing="125%"
       id="text2989"
       y="677.04175"
       x="181.14862"
       style="font-size:14px;font-style:normal;font-variant:normal;font-weight:normal;font-stretch:normal;line-height:125%;letter-spacing:0px;word-spacing:0px;fill:#ffffff;fill-opacity:1;stroke:none;font-family:Sans;-inkscape-font-specification:Helvetica;filter:url(#filter3903)"
       xml:space="preserve"><tspan
         style="font-size:144px;font-style:italic;font-variant:normal;font-weight:normal;font-stretch:normal;text-align:start;line-height:125%;writing-mode:lr-tb;text-anchor:start;font-family:Brush Script MT;-inkscape-font-specification:Brush Script MT Italic;fill:#ffffff;fill-opacity:1"
         y="677.04175"
         x="181.14862"
         id="tspan2991"
         sodipodi:role="line">afterglow</tspan></text>
    <path
       style="font-size:14px;font-style:normal;font-variant:normal;font-weight:normal;font-stretch:normal;line-height:125%;letter-spacing:0px;word-spacing:0px;fill:url(#linearGradient3907);fill-opacity:1;stroke:none;filter:url(#filter3867);font-family:Sans;-inkscape-font-specification:Helvetica"
       d="m 280.625,588.65625 c -5.88729,2.06216 -7.09602,9.76348 -10.60741,14.2822 -5.99292,10.0538 -9.95766,21.27394 -15.55043,31.43968 -4.81747,4.50716 -7.10371,11.31731 -13.15466,14.27812 -3.8458,2.31804 -2.34153,7.95159 -6.88177,9.42814 -2.91913,1.69282 -7.75169,6.2552 -10.93073,2.97811 -2.4529,-8.73258 10.02851,-13.40678 9.03125,-21.96875 -0.43837,-2.39818 -3.84454,-5.50492 0.28125,-6.1875 4.03801,-4.55344 -1.98184,-12.92648 -7.71875,-11.65625 -16.97084,3.20577 -32.10797,14.12657 -43,27.3125 -5.57628,9.75741 -1.58298,23.71064 7.4375,29.90625 6.78155,1.79949 11.63911,-5.62114 16,-9.53125 3.04844,-3.51034 5.63239,-6.78272 3.5625,-0.4375 -1.27756,5.05285 0.36939,13.05996 6.90625,12.59375 10.14412,-1.26951 17.08095,-11.37412 24,-16.84375 1.8149,4.03239 -2.72855,8.65848 -3.40625,13.03125 -4.17027,11.19343 -7.69343,26.18839 1.125,36.125 5.5685,4.49551 12.1252,-1.91645 16.21728,-5.50929 9.80717,-9.59252 16.50318,-22.86933 15.62647,-36.92821 4.51598,-2.33851 8.00555,-6.07772 11.59375,-9.625 -2.98261,6.47422 -4.09002,17.17104 4.0625,20.3125 9.35648,1.82836 16.77702,-6.28391 23.3125,-11.75 1.88849,-0.948 5.3082,-7.31531 5.3125,-2.875 1.04384,9.00659 9.95866,16.08515 19,13.5625 13.66656,-2.84257 21.68056,-15.62409 31.45154,-24.27335 2.75554,-3.06474 5.13689,-6.4135 7.04846,-10.03915 3.85124,-0.66342 10.02663,-2.76828 5.08585,2.07137 -5.44897,7.55285 -11.01567,19.22834 -4.3046,27.77238 5.38422,5.87114 13.57869,0.47189 18.0625,-3.84375 2.92191,-2.08881 6.07995,-6.54962 8.40625,-7.34375 1.55202,6.24513 6.6571,14.67193 14.3125,11.625 7.16865,-2.39862 12.594,-7.97296 17.96875,-13 -2.88381,6.42331 -5.51874,13.07644 -11.9382,16.75449 -9.12413,7.7899 -19.26183,17.58547 -20.1868,30.24551 0.11486,5.069 6.64453,4.78478 9.5,2.09375 11.83077,-8.34103 18.96535,-21.44198 26.89682,-33.16709 5.95106,-4.90264 11.90212,-9.80527 17.85318,-14.70791 0.30494,7.60664 5.48528,17.76772 14.53125,15.8125 8.2736,-1.85572 14.19426,-9.41925 19.46875,-14.96875 2.0139,8.8861 12.10397,16.87484 21,11.9375 4.61787,-1.98248 7.91259,-6.26244 11.5,-9.3125 4.17022,0.49536 8.51209,-1.49833 11.4375,-3.5625 1.63388,6.42015 6.45989,15.23251 14.1875,14.15625 6.94335,-2.39196 10.79414,-9.23012 15.71875,-14.25 -1.35835,5.53097 -1.20696,14.78022 6.1875,15.53125 9.12302,-0.16899 15.10333,-8.87206 20.875,-14.8125 6.20082,4.92593 15.4495,0.2877 18.53125,-5.71875 0.41344,-6.79415 0.65475,-12.5548 -5.0625,-4.84375 -1.01871,2.09659 -6.16942,2.06477 -4.28125,-0.625 4.77166,-6.77373 9.30274,-16.70178 4.84375,-24.59375 -4.60363,-3.61753 -9.28445,2.73171 -12.15625,5.78125 -4.88184,5.76481 -8.85346,13.16785 -8.78125,20.625 -2.54926,2.76792 -4.92587,7.36278 -8.53125,8.28125 0.14894,-8.80588 6.43131,-16.87775 9.5996,-24.95183 1.95634,-3.2801 5.39282,-9.37569 0.0254,-11.39192 -4.43512,-2.49441 -8.90512,0.84402 -10.59375,5.15625 -8.62745,10.66132 -16.16915,22.90886 -27.46875,30.9375 -0.99758,-2.2806 0.2553,-7.32938 2.76974,-9.01802 7.27337,-7.40302 16.96539,-14.93993 18.41776,-25.91948 -1.67233,-5.28798 -10.17089,-6.72269 -14.03125,-2.71875 -8.22613,7.53504 -15.78668,16.59824 -19.96875,26.96875 -0.52286,2.25182 -3.45469,3.55345 -5.46875,4.28125 3.23845,-6.9334 7.34878,-15.83296 3.75,-23.34375 -2.09211,-1.21901 -2.03669,-2.37828 -1.625,-4.59375 -1.99632,-6.72651 -11.52023,-5.72008 -16.65625,-3.5625 -11.67073,5.1338 -22.06599,15.55488 -25.09375,28.25 -4.80913,3.17371 -8.40593,10.16325 -14.4375,10.625 -5.54569,-1.26814 -5.41218,-9.58744 -3.37908,-13.44877 13.061,-14.45913 26.38797,-30.86837 29.44158,-50.67623 0.64076,-3.94533 0.3283,-11.5263 -5.5,-10.28125 -12.26038,5.27017 -19.13963,18.06103 -26.02507,28.80706 -6.11232,11.07853 -11.69323,22.9597 -13.28743,35.53669 -4.76523,3.51526 -11.3595,9.36636 -5.93538,0.39968 2.23363,-6.46902 7.89587,-13.65904 5.02913,-20.64968 -3.76419,-4.91309 -10.22463,-0.41368 -12.90625,3.25 -8.08683,8.89772 -15.21447,20.04096 -26.46875,25.03125 -3.63515,0.0383 -1.34572,-5.6934 -0.15625,-7.40625 6.26699,-10.50833 18.19281,-15.28787 28.34375,-21.09375 4.85751,-2.1304 6.94854,-10.87815 0.53125,-12.28125 -10.80325,-1.00429 -20.01794,6.74996 -28.4375,12.4375 -6.48631,5.19677 -12.86146,11.54793 -15.15625,19.71875 -4.12592,2.55076 -9.31156,8.69468 -14.28125,6.59375 0.66362,-9.12216 9.07253,-14.88301 13.75,-21.96875 2.03938,-4.94012 -0.52143,-14.07797 -7.3125,-12.625 -4.36334,0.0445 -9.82873,1.60004 -13.3125,1.28125 2.28918,-4.23289 -3.37027,-6.81705 -6.4375,-4.25 -6.82424,4.54851 -13.18759,12.24354 -13.3125,20.78125 -0.62266,2.95181 4.63888,4.28626 2.21875,6.28125 -6.36543,6.87186 -14.32736,14.12021 -23.875,15.5625 -5.25893,1.3459 -9.22202,-8.37404 -2.5,-8.71875 10.47201,-5.1128 23.76792,-11.18205 26.375,-23.78125 1.613,-6.37954 -4.94506,-11.22672 -10.875,-9.84375 -13.78011,2.2744 -25.2989,12.81351 -32.09375,24.53125 -1.19902,4.17236 -3.17385,7.56389 -7.19376,9.67881 -3.66016,2.16415 -8.48717,7.85181 -12.86874,6.03994 -1.81237,-9.69943 5.31345,-18.38061 9.61236,-26.54251 2.91572,-3.04525 10.21276,2.67717 12.01264,-3.20749 3.82226,-5.08031 7.20559,-10.50935 10.15625,-16.15625 -5.61427,0.2263 -8.05672,-1.09529 -3.5,-5.125 2.95535,-2.17296 4.08415,-7.8463 -0.6875,-8.4375 -8.16609,-1.80721 -13.91971,5.71114 -17.25,12.03125 -7.51572,-0.50502 -16.51309,0.59727 -20.25,8.125 -1.74568,3.42585 -6.423,8.52369 -3.09375,12.0625 3.40864,0.61087 6.64566,-1.82997 10.21875,-1 -6.95798,10.35082 -15.7064,20.5086 -26.6875,26.46875 -1.99388,-3.65082 -5.16891,-6.4551 -8.1875,-9.25 8.3742,-15.446 18.69923,-30.06934 25.96875,-45.96875 1.76083,-5.50937 3.92056,-14.35537 -2.03125,-18 -0.5423,-0.22023 -1.14231,-0.26268 -1.71875,-0.1875 z M 486,609.4375 c -2.78241,8.79543 -7.88737,16.78353 -13.5,24.1875 3.11827,-8.50771 7.51047,-18.17337 13.5,-24.1875 z m -140.71875,26.125 c -2.75554,6.1882 -8.4413,10.67956 -14.34375,13.75 2.67421,-6.05145 8.60734,-11.72809 14.34375,-13.75 z M 216.5,641.65625 c -6.56119,8.41226 -13.30747,18.03065 -23.4375,22.1875 -3.05872,-7.80212 5.78665,-13.50745 11.51554,-16.98023 4.33346,-2.61391 8.84672,-4.92955 13.39071,-7.14477 -0.48958,0.64583 -0.97917,1.29167 -1.46875,1.9375 z m 297.1875,0.6875 c -2.95911,5.79373 -4.84588,12.70897 -2.78125,19.09375 -3.11897,2.24773 -8.98236,6.29288 -12.09375,2.34375 -0.27501,-6.88835 2.82832,-13.70069 8.8125,-17.4375 1.80679,-1.33276 4.76492,-3.546 6.0625,-4 z m -263.65625,30.5625 c 2.32534,1.98643 8.08849,-0.0678 6.8125,4.125 -0.5463,8.09402 -2.11959,18.44485 -9.46875,23 -5.05791,-8.29637 -0.71434,-18.83781 2.15625,-27.34375 l 0.5,0.21875 z"
       id="text2985"
       inkscape:connector-curvature="0" />
    <path
       inkscape:connector-curvature="0"
       id="path3909"
       d="m 280.625,588.65625 c -5.88729,2.06216 -7.09602,9.76348 -10.60741,14.2822 -5.99292,10.0538 -9.95766,21.27394 -15.55043,31.43968 -4.81747,4.50716 -7.10371,11.31731 -13.15466,14.27812 -3.8458,2.31804 -2.34153,7.95159 -6.88177,9.42814 -2.91913,1.69282 -7.75169,6.2552 -10.93073,2.97811 -2.4529,-8.73258 10.02851,-13.40678 9.03125,-21.96875 -0.43837,-2.39818 -3.84454,-5.50492 0.28125,-6.1875 4.03801,-4.55344 -1.98184,-12.92648 -7.71875,-11.65625 -16.97084,3.20577 -32.10797,14.12657 -43,27.3125 -5.57628,9.75741 -1.58298,23.71064 7.4375,29.90625 6.78155,1.79949 11.63911,-5.62114 16,-9.53125 3.04844,-3.51034 5.63239,-6.78272 3.5625,-0.4375 -1.27756,5.05285 0.36939,13.05996 6.90625,12.59375 10.14412,-1.26951 17.08095,-11.37412 24,-16.84375 1.8149,4.03239 -2.72855,8.65848 -3.40625,13.03125 -4.17027,11.19343 -7.69343,26.18839 1.125,36.125 5.5685,4.49551 12.1252,-1.91645 16.21728,-5.50929 9.80717,-9.59252 16.50318,-22.86933 15.62647,-36.92821 4.51598,-2.33851 8.00555,-6.07772 11.59375,-9.625 -2.98261,6.47422 -4.09002,17.17104 4.0625,20.3125 9.35648,1.82836 16.77702,-6.28391 23.3125,-11.75 1.88849,-0.948 5.3082,-7.31531 5.3125,-2.875 1.04384,9.00659 9.95866,16.08515 19,13.5625 13.66656,-2.84257 21.68056,-15.62409 31.45154,-24.27335 2.75554,-3.06474 5.13689,-6.4135 7.04846,-10.03915 3.85124,-0.66342 10.02663,-2.76828 5.08585,2.07137 -5.44897,7.55285 -11.01567,19.22834 -4.3046,27.77238 5.38422,5.87114 13.57869,0.47189 18.0625,-3.84375 2.92191,-2.08881 6.07995,-6.54962 8.40625,-7.34375 1.55202,6.24513 6.6571,14.67193 14.3125,11.625 7.16865,-2.39862 12.594,-7.97296 17.96875,-13 -2.88381,6.42331 -5.51874,13.07644 -11.9382,16.75449 -9.12413,7.7899 -19.26183,17.58547 -20.1868,30.24551 0.11486,5.069 6.64453,4.78478 9.5,2.09375 11.83077,-8.34103 18.96535,-21.44198 26.89682,-33.16709 5.95106,-4.90264 11.90212,-9.80527 17.85318,-14.70791 0.30494,7.60664 5.48528,17.76772 14.53125,15.8125 8.2736,-1.85572 14.19426,-9.41925 19.46875,-14.96875 2.0139,8.8861 12.10397,16.87484 21,11.9375 4.61787,-1.98248 7.91259,-6.26244 11.5,-9.3125 4.17022,0.49536 8.51209,-1.49833 11.4375,-3.5625 1.63388,6.42015 6.45989,15.23251 14.1875,14.15625 6.94335,-2.39196 10.79414,-9.23012 15.71875,-14.25 -1.35835,5.53097 -1.20696,14.78022 6.1875,15.53125 9.12302,-0.16899 15.10333,-8.87206 20.875,-14.8125 6.20082,4.92593 15.4495,0.2877 18.53125,-5.71875 0.41344,-6.79415 0.65475,-12.5548 -5.0625,-4.84375 -1.01871,2.09659 -6.16942,2.06477 -4.28125,-0.625 4.77166,-6.77373 9.30274,-16.70178 4.84375,-24.59375 -4.60363,-3.61753 -9.28445,2.73171 -12.15625,5.78125 -4.88184,5.76481 -8.85346,13.16785 -8.78125,20.625 -2.54926,2.76792 -4.92587,7.36278 -8.53125,8.28125 0.14894,-8.80588 6.43131,-16.87775 9.5996,-24.95183 1.95634,-3.2801 5.39282,-9.37569 0.0254,-11.39192 -4.43512,-2.49441 -8.90512,0.84402 -10.59375,5.15625 -8.62745,10.66132 -16.16915,22.90886 -27.46875,30.9375 -0.99758,-2.2806 0.2553,-7.32938 2.76974,-9.01802 7.27337,-7.40302 16.96539,-14.93993 18.41776,-25.91948 -1.67233,-5.28798 -10.17089,-6.72269 -14.03125,-2.71875 -8.22613,7.53504 -15.78668,16.59824 -19.96875,26.96875 -0.52286,2.25182 -3.45469,3.55345 -5.46875,4.28125 3.23845,-6.9334 7.34878,-15.83296 3.75,-23.34375 -2.09211,-1.21901 -2.03669,-2.37828 -1.625,-4.59375 -1.99632,-6.72651 -11.52023,-5.72008 -16.65625,-3.5625 -11.67073,5.1338 -22.06599,15.55488 -25.09375,28.25 -4.80913,3.17371 -8.40593,10.16325 -14.4375,10.625 -5.54569,-1.26814 -5.41218,-9.58744 -3.37908,-13.44877 13.061,-14.45913 26.38797,-30.86837 29.44158,-50.67623 0.64076,-3.94533 0.3283,-11.5263 -5.5,-10.28125 -12.26038,5.27017 -19.13963,18.06103 -26.02507,28.80706 -6.11232,11.07853 -11.69323,22.9597 -13.28743,35.53669 -4.76523,3.51526 -11.3595,9.36636 -5.93538,0.39968 2.23363,-6.46902 7.89587,-13.65904 5.02913,-20.64968 -3.76419,-4.91309 -10.22463,-0.41368 -12.90625,3.25 -8.08683,8.89772 -15.21447,20.04096 -26.46875,25.03125 -3.63515,0.0383 -1.34572,-5.6934 -0.15625,-7.40625 6.26699,-10.50833 18.19281,-15.28787 28.34375,-21.09375 4.85751,-2.1304 6.94854,-10.87815 0.53125,-12.28125 -10.80325,-1.00429 -20.01794,6.74996 -28.4375,12.4375 -6.48631,5.19677 -12.86146,11.54793 -15.15625,19.71875 -4.12592,2.55076 -9.31156,8.69468 -14.28125,6.59375 0.66362,-9.12216 9.07253,-14.88301 13.75,-21.96875 2.03938,-4.94012 -0.52143,-14.07797 -7.3125,-12.625 -4.36334,0.0445 -9.82873,1.60004 -13.3125,1.28125 2.28918,-4.23289 -3.37027,-6.81705 -6.4375,-4.25 -6.82424,4.54851 -13.18759,12.24354 -13.3125,20.78125 -0.62266,2.95181 4.63888,4.28626 2.21875,6.28125 -6.36543,6.87186 -14.32736,14.12021 -23.875,15.5625 -5.25893,1.3459 -9.22202,-8.37404 -2.5,-8.71875 10.47201,-5.1128 23.76792,-11.18205 26.375,-23.78125 1.613,-6.37954 -4.94506,-11.22672 -10.875,-9.84375 -13.78011,2.2744 -25.2989,12.81351 -32.09375,24.53125 -1.19902,4.17236 -3.17385,7.56389 -7.19376,9.67881 -3.66016,2.16415 -8.48717,7.85181 -12.86874,6.03994 -1.81237,-9.69943 5.31345,-18.38061 9.61236,-26.54251 2.91572,-3.04525 10.21276,2.67717 12.01264,-3.20749 3.82226,-5.08031 7.20559,-10.50935 10.15625,-16.15625 -5.61427,0.2263 -8.05672,-1.09529 -3.5,-5.125 2.95535,-2.17296 4.08415,-7.8463 -0.6875,-8.4375 -8.16609,-1.80721 -13.91971,5.71114 -17.25,12.03125 -7.51572,-0.50502 -16.51309,0.59727 -20.25,8.125 -1.74568,3.42585 -6.423,8.52369 -3.09375,12.0625 3.40864,0.61087 6.64566,-1.82997 10.21875,-1 -6.95798,10.35082 -15.7064,20.5086 -26.6875,26.46875 -1.99388,-3.65082 -5.16891,-6.4551 -8.1875,-9.25 8.3742,-15.446 18.69923,-30.06934 25.96875,-45.96875 1.76083,-5.50937 3.92056,-14.35537 -2.03125,-18 -0.5423,-0.22023 -1.14231,-0.26268 -1.71875,-0.1875 z M 486,609.4375 c -2.78241,8.79543 -7.88737,16.78353 -13.5,24.1875 3.11827,-8.50771 7.51047,-18.17337 13.5,-24.1875 z m -140.71875,26.125 c -2.75554,6.1882 -8.4413,10.67956 -14.34375,13.75 2.67421,-6.05145 8.60734,-11.72809 14.34375,-13.75 z M 216.5,641.65625 c -6.56119,8.41226 -13.30747,18.03065 -23.4375,22.1875 -3.05872,-7.80212 5.78665,-13.50745 11.51554,-16.98023 4.33346,-2.61391 8.84672,-4.92955 13.39071,-7.14477 -0.48958,0.64583 -0.97917,1.29167 -1.46875,1.9375 z m 297.1875,0.6875 c -2.95911,5.79373 -4.84588,12.70897 -2.78125,19.09375 -3.11897,2.24773 -8.98236,6.29288 -12.09375,2.34375 -0.27501,-6.88835 2.82832,-13.70069 8.8125,-17.4375 1.80679,-1.33276 4.76492,-3.546 6.0625,-4 z m -263.65625,30.5625 c 2.32534,1.98643 8.08849,-0.0678 6.8125,4.125 -0.5463,8.09402 -2.11959,18.44485 -9.46875,23 -5.05791,-8.29637 -0.71434,-18.83781 2.15625,-27.34375 l 0.5,0.21875 z"
       style="font-size:14px;font-style:normal;font-variant:normal;font-weight:normal;font-stretch:normal;line-height:125%;letter-spacing:0px;word-spacing:0px;fill:url(#linearGradient3907);fill-opacity:1;stroke:none;font-family:Sans;-inkscape-font-specification:Helvetica;filter:url(#filter3927)" />
    <text
       xml:space="preserve"
       style="font-size:14px;font-style:normal;font-variant:normal;font-weight:normal;font-stretch:normal;line-height:125%;letter-spacing:0px;word-spacing:0px;fill:#000000;fill-opacity:1;stroke:none;font-family:Sans;-inkscape-font-specification:Helvetica;filter:url(#filter3955)"
       x="181.14862"
       y="677.04175"
       id="text3871"
       sodipodi:linespacing="125%"><tspan
         sodipodi:role="line"
         id="tspan3873"
         x="181.14862"
         y="677.04175"
         style="font-size:144px;font-style:italic;font-variant:normal;font-weight:normal;font-stretch:normal;text-align:start;line-height:125%;writing-mode:lr-tb;text-anchor:start;font-family:Brush Script MT;-inkscape-font-specification:Brush Script MT Italic">afterglow</tspan></text>
  </g>
</svg>
